PathFileType	4	(X/Y/Z)	30_2_104_p1_0-239_filt_butterworth.trc
DataRate	CameraRate	NumFrames	NumMarkers	Units	OrigDataRate	OrigDataStartFrame	OrigNumFrames
49.0	49.0	7	27	m	49.0	0	239
Frame#	Time	RHip			RKnee			RAnkle			RBigToe			RSmallToe			RHeel			LHip			LKnee			LAnkle			LBigToe			LSmallToe			LHeel			Neck			Head			Nose			RShoulder			RElbow			RWrist			RThumb			RIndex			RPinky			LShoulder			LElbow			LWrist			LThumb			LIndex			LPinky			
		X1	Y1	Z1	X2	Y2	Z2	X3	Y3	Z3	X4	Y4	Z4	X5	Y5	Z5	X6	Y6	Z6	X7	Y7	Z7	X8	Y8	Z8	X9	Y9	Z9	X10	Y10	Z10	X11	Y11	Z11	X12	Y12	Z12	X13	Y13	Z13	X14	Y14	Z14	X15	Y15	Z15	X16	Y16	Z16	X17	Y17	Z17	X18	Y18	Z18	X19	Y19	Z19	X20	Y20	Z20	X21	Y21	Z21	X22	Y22	Z22	X23	Y23	Z23	X24	Y24	Z24	X25	Y25	Z25	X26	Y26	Z26	X27	Y27	Z27	
0	0.0	0.28447763830215383	0.49382085945815457	0.8624292355012673	0.2885725769658695	0.5134429070023323	1.3388715262745938	0.2573477906171098	0.5580024171712702	1.8112447542727708	0.25616788958530845	0.34739729928374696	1.7916969215614198	0.3079577720410139	0.3771529488615382	1.7899484322019403	0.239446007311863	0.6081913112845276	1.8697759902304976	0.04429315481816269	0.4996345180845416	0.8857118682726468	0.0677080733141409	0.5204402252421909	1.3546121981125336	0.07168428169158005	0.5243786880697453	1.7976484570988736	0.11293653738116596	0.3264796405674899	1.767485538450302	0.0660662212401404	0.3502267711834872	1.784033037303257	0.07614348645678948	0.5584745421595628	1.849416138056143	0.1456554383436635	0.4938282748713936	0.2311669978323716	0.1356965485753085	0.39870416313563745	-0.010692083783384033	0.12813910192102418	0.35457135487760577	0.12318165685123598	0.3288464387698119	0.49488788496107045	0.3462701758303186	0.3841111830207796	0.46727703728650605	0.6124454591994541	0.34970161024456436	0.33196769421969585	0.7973485727956127	0.22779711643626072	0.2489145215366578	0.9062983366089357	0.24818264672071674	0.2889665603897789	0.9401252177271979	0.29803772878758406	0.3350840187793183	0.9693080717957872	-0.0383694509306987	0.49176278881826985	0.3379453589973248	-0.07549915622855821	0.5300544639661742	0.6165552082773726	-0.06348072201388166	0.3577263015031394	0.8297409567000614	-0.02133406184154465	0.3430997377214638	0.9445965809529131	-0.039889930780124816	0.3146474370320762	0.9746441331097992	-0.06280587683398811	0.3618387930952954	0.9935743054042316
1	0.0204081632653061	0.2846069354264227	0.494195800640709	0.8588218172031276	0.2869327336289934	0.5136060173146423	1.345775091569881	0.25814364894395164	0.5426643588310592	1.803216392875938	0.25373057074446226	0.3397645711071486	1.7861170618060078	0.31442709251353546	0.36864243423436405	1.7852246633200053	0.24327336645745118	0.598712422364615	1.8684206448964684	0.04496323943168824	0.5002844549973564	0.8836582422403558	0.06973603955500554	0.5155685155461873	1.3517273196906692	0.07528201783559303	0.5152640543087545	1.7925746104955156	0.11328121160241528	0.3177021871244061	1.7615283661214625	0.06758793990139572	0.34567392567006494	1.7792790045471512	0.0750714097891451	0.5586496705935076	1.8537532573206292	0.14347585198421242	0.4862764523109287	0.23188691506492587	0.13578585629713602	0.3982437950910956	-0.011766648794446864	0.1267032616685323	0.35806438916144867	0.12100707078592322	0.3259442151479478	0.48722016572788085	0.3453897025614348	0.38393140410575705	0.4682448076908634	0.6101354290091592	0.3520353879338829	0.3326060920279382	0.8043556349679353	0.2315398302383196	0.2572954107158101	0.910532631196851	0.25585088563768144	0.2901961813618296	0.9405764902465998	0.2932606243315298	0.3290485204620139	0.9670151091290564	-0.03841144131262478	0.49189086507638513	0.33789710785427707	-0.07233263986258356	0.5218097734808442	0.611066842494313	-0.06306520546794024	0.358276197278663	0.8327075412532958	-0.020700367257095967	0.34884747969912533	0.9449790920201286	-0.04046351565335593	0.3142501608194345	0.9742707956379378	-0.06282415060075279	0.36156029502660864	0.9948166314660071
2	0.0408163265306122	0.28476536862893204	0.49442479501380177	0.8563983817508529	0.28625104851681094	0.5133147610372825	1.349163498180286	0.2583750405043567	0.5368048943082393	1.800449841877038	0.25264184319820465	0.33616543448672603	1.7834120003549558	0.3178782669088363	0.364672483745222	1.7836016196797049	0.24484561806417734	0.5941846883416537	1.8672345574672327	0.04543632414502652	0.5013868315081815	0.8824650369373419	0.07003214398157931	0.5161981526682592	1.3510817384701521	0.07711380359513394	0.5108769424254677	1.7910686496130799	0.11288433466145989	0.31669214167577286	1.7608719404465618	0.0674965093054044	0.34590574621279935	1.7797091860501293	0.07494475679143711	0.5572665128098513	1.855378566718475	0.14251721719921037	0.48228129795711316	0.2326206271011711	0.13549016518113646	0.39895938170541	-0.012951284381521285	0.1252153179390454	0.36212024309525853	0.12020637688697985	0.3245001920957361	0.4834063503733092	0.34494797084870116	0.38379493340534426	0.46882001637388576	0.6089900074520783	0.35245137495669016	0.3327585177479826	0.8085491487229294	0.2375000340439712	0.25649586729615736	0.9113482005690661	0.2652193184592596	0.2828045554461331	0.9403692153057646	0.29315731584380644	0.3284836282354295	0.9689757579696294	-0.038407740257597814	0.4919359973783893	0.33783784030300346	-0.07062278810277721	0.5175208358032148	0.6082318831002698	-0.0628604535485768	0.358484061871883	0.8342282695434513	-0.021487438507412564	0.352538031853391	0.9447073755337358	-0.04163153863052186	0.3112483035148317	0.9729197134636653	-0.06352304820223947	0.35740608271451424	0.9942158739632451
3	0.0612244897959183	0.28484373938130864	0.4944344010246424	0.8553768506634032	0.2868319265286498	0.512939852752106	1.3497266212942072	0.2576231046698438	0.5357064489772911	1.8005232887868923	0.25270882459327154	0.33607750354581845	1.7831418298041106	0.3180052843224094	0.3645750350952569	1.7834394066123513	0.24425340664570122	0.5926934836494543	1.8653253585502636	0.045343901798237884	0.5013790047041679	0.8809746229066515	0.06933622272088243	0.5196177023435016	1.3528049804373965	0.07727313440073827	0.5108847287519945	1.7933580555657165	0.11320020750069265	0.3220875493424947	1.7644706544763595	0.06660762071751254	0.3486648606196212	1.782857947446524	0.0762914215962592	0.5523334836231658	1.853493329816646	0.14255480634834908	0.48169504106805927	0.23245379324914905	0.13447347039363697	0.40207748101332996	-0.013709502911479007	0.1242358457914127	0.364986765232381	0.12042711308961833	0.32440828620268936	0.48284515286824226	0.344860537225127	0.38374002771751414	0.46885436767733496	0.6086820734327238	0.3523529308981587	0.33265960276125855	0.8095925066858316	0.24581890080101418	0.2445159453458329	0.9076244082523945	0.27550691891922485	0.2635040371098967	0.9366393701055926	0.29740126390588756	0.3279202970774719	0.9729376828290606	-0.038311253863167166	0.49171640606033745	0.33775671665667933	-0.07035133905686868	0.5168994175440098	0.6076470779295744	-0.06284153451110883	0.35841452753291914	0.8345424614050677	-0.02361122888718626	0.3485679848223099	0.9424428520404712	-0.0429875765073708	0.3065472233982227	0.9707898519672461	-0.06477168240286017	0.3491322421757182	0.9915632767379936
4	0.0816326530612244	0.2847784240134607	0.49435619339316283	0.8545918884501976	0.28785025105393597	0.5142664759698734	1.3501969622647343	0.25660178494611086	0.5326224796160632	1.7993693589262205	0.25257681287048367	0.3366533466037077	1.7832004062277098	0.31616631791457245	0.36506373167951656	1.7824704715312711	0.24360184879631008	0.5895487763930753	1.8636838611985143	0.04439343191063547	0.49824988125906844	0.8781776008871346	0.06895351261648976	0.5215083401234519	1.356180450729543	0.07684131770697003	0.5120912451325039	1.7965105737312077	0.11434791102061459	0.32715718886166256	1.7677885095580836	0.06613908257433766	0.35029904063360295	1.7843124221478315	0.07876729451910525	0.5457016677695132	1.8497915471193775	0.1424226615132457	0.48337082523791547	0.23137230854187593	0.13307672140974391	0.4066477057493001	-0.013805129603007713	0.12398093968527835	0.3657068830942392	0.12044168959460547	0.3246950489782863	0.4831085595280823	0.34487273774018423	0.3838097485917428	0.4683958830748213	0.6084701173627721	0.3541876056818551	0.33281445264408027	0.8091442525845699	0.2537679030247536	0.228384919284416	0.9024704583687045	0.2842839679566772	0.24158843565861543	0.9307572763062854	0.3031410274764909	0.3191112807016837	0.9738825706424152	-0.03819527131955803	0.49135569314495203	0.3376759617245103	-0.07059533807487749	0.5174425789209474	0.6073416408202068	-0.06290484708851009	0.3583221778890264	0.8344709588442409	-0.02575493023052627	0.33668305605246956	0.9379556565217018	-0.04368178362771426	0.3031693146418686	0.9686379159302039	-0.06565064530562048	0.34076412756267555	0.9885416523289368
5	0.1020408163265306	0.28458181724525444	0.4945538262742804	0.8532919681247428	0.28739109043466127	0.5185904665552211	1.3511497430960173	0.2561793148436681	0.5290629521620611	1.79751202873274	0.25130981584323564	0.33698689533340226	1.7828231862519008	0.3137882750488937	0.36440293496737775	1.7812911773437592	0.24420046702964004	0.5844248957626279	1.863717679269976	0.042916565954214295	0.4931473697778627	0.8754149224191712	0.06885696680022634	0.5216735886035672	1.359271236510693	0.07639089318240519	0.5125488228185431	1.7974205987061422	0.11390469049978469	0.3285764122041714	1.768741292820252	0.06601619864553133	0.35085919274192295	1.7834222389313024	0.08151925907154421	0.5427944197970689	1.8469250186206456	0.14132694376603447	0.4875479956515373	0.2306769730466068	0.13219452142225535	0.4098348749934981	-0.013672157133004135	0.12402858286869588	0.3654715856983297	0.11962295608241252	0.3245878955604861	0.4842796532005001	0.3450823920907502	0.383971952842014	0.46779615598615043	0.6089257957268518	0.3577344221672955	0.3331842152788556	0.8088377743796226	0.2592114516580578	0.21776976427377942	0.8994556825123943	0.29069106986205934	0.22926589069217035	0.9277074176827416	0.3084716895971643	0.3027165916993501	0.9702638110116875	-0.03847964184956515	0.49211403009574495	0.33776590017695524	-0.07068812498147733	0.5176174816571857	0.606719730422443	-0.06304387625652717	0.35821790731579456	0.833576560651629	-0.027154158412019166	0.3251582500113551	0.9331510220010271	-0.043593927935403724	0.3019858002611475	0.9669221449925209	-0.06563084043285494	0.3359217783465026	0.986329625616399
6	0.1224489795918367	0.2841566784339491	0.49533232867389154	0.8535081080948839	0.2848098026526062	0.5239074232444879	1.3514198578149206	0.2562235321709109	0.5277384001440196	1.7966979341465832	0.24953673132207047	0.3379367143364357	1.782987348118748	0.3121453295599063	0.36300183235672817	1.7812389028639002	0.24539876460417387	0.5807388721497331	1.8640015729254287	0.04177257517772876	0.4894636599580925	0.8745444858664304	0.06862280172670768	0.5213659522818898	1.3600095782636614	0.0760362015916817	0.5121673238907136	1.7968306373030174	0.11125314948489265	0.3275379655443682	1.7681558881595285	0.06586871074714347	0.35132015545059053	1.7816737388374393	0.08385029097180888	0.545645477648526	1.8465350550107331	0.13966860167692907	0.49304852888078526	0.23090641807494172	0.13208571543333658	0.41061577587045767	-0.0136453206622404	0.12409569403159966	0.36537901856684696	0.11838633370023356	0.3237327312873341	0.4880677419051547	0.3456844983633648	0.3838954194487113	0.4685119758602747	0.6114257854551052	0.36092248386617537	0.3332451746986449	0.8095814721596273	0.2637883974515684	0.21769246956187988	0.8988700951218411	0.29618952632054574	0.22679712853840556	0.9278367114352852	0.3128456275532505	0.2846900784278703	0.9640565657110904	-0.039602787065324406	0.4954754574750913	0.33824680136592694	-0.07059645100599819	0.5173736534379084	0.6062905298136758	-0.06322934465218483	0.35787455836675086	0.8309829260208221	-0.02793498776810452	0.3198945670373692	0.9299917504067665	-0.04334444223414085	0.3014936043362767	0.9659064773430635	-0.06554311778876529	0.3345419249046464	0.9849269518705175
